<svg viewBox="0 0 87 69" fill="none" xmlns="http://www.w3.org/2000/svg">
    <path d="M0 20C0 8.9543 8.95431 0 20 0H79.3333C83.5675 0 87 3.43248 87 7.66667C87 41.5401 59.5401 69 25.6667 69H0V20Z"
          fill="#9A816B"/>
    <path d="M40.5625 23.5625C41.7604 23.7962 42.9495 24.3245 43.8125 25.1875C44.6755 26.0505 45.2038 27.2396 45.4375 28.4375M41.375 17.875C43.8637 18.1515 46.1033 19.3555 47.875 21.125C49.6467 22.8945 50.8454 25.1366 51.125 27.625M51.1241 39.7746V44.178C51.131 45.8612 49.6174 47.2668 47.918 47.1135C33.2501 47.125 21.8751 35.6444 21.8866 21.0749C21.7335 19.3845 23.1322 17.8767 24.8133 17.8751H29.2254C29.9391 17.8681 30.6311 18.1204 31.1722 18.5849C32.7108 19.9054 33.7004 24.3876 33.3197 26.1695C33.0224 27.5606 31.6201 28.5339 30.6667 29.4854C32.7603 33.16 35.8089 36.2026 39.4909 38.2921C40.4443 37.3406 41.4195 35.941 42.8134 35.6444C44.6015 35.2638 49.1125 36.2548 50.4278 37.8041C50.8942 38.3534 51.142 39.0547 51.1241 39.7746Z"
          stroke="#191614" stroke-width="2.6" stroke-linecap="round" stroke-linejoin="round"/>
</svg>
