<svg width="25" height="27" viewBox="0 0 25 27" fill="none" xmlns="http://www.w3.org/2000/svg">
    <path d="M17.3333 17.2667V19.5167L18.5333 20.8667M7.99992 11.6667H1.33325M22.6666 9V6.33333C22.6666 4.86057 21.4727 3.66667 19.9999 3.66667H3.99992C2.52716 3.66667 1.33325 4.86057 1.33325 6.33333V22.3333C1.33325 23.8061 2.52716 25 3.99992 25H7.99992M15.9999 1V6.33333M7.99992 1V6.33333M23.3333 19.6667C23.3333 22.9804 20.647 25.6667 17.3333 25.6667C14.0195 25.6667 11.3333 22.9804 11.3333 19.6667C11.3333 16.353 14.0195 13.6667 17.3333 13.6667C20.647 13.6667 23.3333 16.353 23.3333 19.6667Z"
          stroke="currentColor" stroke-width="1.5" stroke-linecap="round" stroke-linejoin="round"/>
</svg>
